# xmcd
#
# Track frame offsets:
#	150
#	18150
#	45235
#	61275
#	77475
#	96600
#	116775
#	134025
#	155746
#	173068
#	189370
#	207493
#	228418
#	247120
#	264745
#	285311
#
# Disc length: 4026 seconds
#
# Revision: 1
# Processed by: cddbd v1.5.2PL0 Copyright (c) Steve Scherf et al.
# Submitted via: audiograbber 1.83.01
#
DISCID=e30fb810
DTITLE=Bo Katzman Chor - Soul River Bonus-CD
DYEAR=2007
DGENRE=Gospel
TTITLE0=Spirit of Love
TTITLE1=Miracles
TTITLE2=Voices of Paradies
TTITLE3=Heaven and Earth
TTITLE4=Nacht über Bethlehem
TTITLE5=Spirit of Joy
TTITLE6=Kinder dieser Welt
TTITLE7=Our Father
TTITLE8=Moonlight
TTITLE9=Its in the Book
TTITLE10=On the other side
TTITLE11=Home
TTITLE12=I believe in dreams
TTITLE13=Love ist the Power
TTITLE14=The Gospel Road
TTITLE15=Gotta Keep the Flame alive
EXTD=
EXTT0=
EXTT1=
EXTT2=
EXTT3=
EXTT4=
EXTT5=
EXTT6=
EXTT7=
EXTT8=
EXTT9=
EXTT10=
EXTT11=
EXTT12=
EXTT13=
EXTT14=
EXTT15=
PLAYORDER=
